PathFileType	4	(X/Y/Z)	C:\Users\WrightLab\Desktop\Jo\P2_Trial20.trc
DataRate	CameraRate	NumFrames	NumMarkers	Units	OrigDataRate	OrigDataStartFrame	OrigNumFrames
100.00	100.00	       18	19	mm	100.00	296	       787
Frame#	Time	Headset_Front			Headset_Back			Headset_Left			Headset_Right			Left_Shoulder			Right_Shoulder			Sternum			C7			Left Elbow			Right Elbow			Left Wrist			Right Wrist			Left ASIS			Right ASIS			S2			Left Knee			Right Knee			Left Ankle			Right Ankle			
		X1	Y1	Z1	X2	Y2	Z2	X3	Y3	Z3	X4	Y4	Z4	X5	Y5	Z5	X6	Y6	Z6	X7	Y7	Z7	X8	Y8	Z8	X9	Y9	Z9	X10	Y10	Z10	X11	Y11	Z11	X12	Y12	Z12	X13	Y13	Z13	X14	Y14	Z14	X15	Y15	Z15	X16	Y16	Z16	X17	Y17	Z17	X18	Y18	Z18	X19	Y19	Z19	

296	2.950	124.66939	1461.71643	904.46979	195.75793	1714.77307	1065.24438	69.62513	1597.99683	1054.45972	247.73318	1552.22070	912.02435	63.60833	1471.84692	1149.66345	383.93762	1479.02344	1077.59082	219.66460	1350.62231	1063.06873	258.96075	1476.76526	1219.21802	-74.44429	1276.67542	1127.68921	510.03192	1196.51685	1136.82153	-19.85234	1210.42957	1244.61938	430.60007	1167.38599	950.47125	159.61606	1073.80298	1054.87219	288.21698	1052.66272	1034.44543	244.76454	984.05817	1300.34583	36.84827	505.96616	1040.61987	435.99203	576.12701	1207.53333	29.95880	148.90732	1000.51392	454.83789	140.31235	1235.55774	
297	2.960	123.41914	1461.28259	897.99689	195.27231	1714.25513	1059.65552	68.20984	1597.35120	1048.61304	244.97903	1551.61621	905.30853	61.88574	1470.69568	1143.80762	382.17618	1477.79309	1070.80676	218.03183	1349.50500	1056.70752	257.86530	1475.53235	1212.71582	-76.78319	1275.56653	1121.38147	506.57578	1194.71106	1129.74548	-22.14333	1209.24683	1238.45740	427.12671	1165.08276	943.25165	157.05045	1072.73193	1049.24121	287.09561	1049.65686	1029.33557	242.93153	983.06537	1294.40759	35.77409	503.50336	1038.11511	436.55460	576.16351	1201.48230	23.23626	149.95357	983.63086	453.82187	139.16753	1234.74268	
298	2.970	122.17003	1460.96826	891.12317	193.37096	1713.34094	1054.50867	66.84641	1596.50623	1042.73352	244.40695	1551.13293	900.02936	60.17317	1469.81042	1138.51208	380.25076	1476.33948	1064.21729	215.59160	1348.36414	1050.90808	256.40448	1474.27612	1206.39587	-78.56055	1274.11218	1114.89978	503.11307	1192.28418	1122.73535	-24.01189	1208.38574	1232.13293	423.77692	1162.71912	936.73151	154.27698	1070.73999	1042.96655	284.65875	1047.80859	1024.35083	240.69917	982.01453	1288.08630	34.55785	500.88898	1035.48694	435.88809	574.44189	1193.86426	17.14441	151.41226	967.22418	452.84317	139.16881	1234.15601	
299	2.980	120.11632	1461.03064	884.84430	191.18585	1712.54224	1048.81299	63.87709	1595.99390	1037.19226	242.68164	1550.56848	894.88623	58.36610	1468.71350	1132.77087	377.82816	1474.76770	1057.63367	213.38690	1347.36975	1044.55640	254.48091	1472.81946	1199.99023	-81.18693	1273.29639	1108.48425	499.90125	1189.73218	1115.54492	-23.71529	1206.88672	1226.61902	418.86819	1160.44861	929.13525	151.88461	1069.70251	1036.73157	281.47955	1046.84924	1017.85364	239.06685	980.70929	1281.94458	33.99621	498.12570	1033.30933	435.37613	572.60345	1186.53735	11.04203	153.59209	951.74829	451.79630	138.47092	1233.74451	
300	2.990	118.25439	1460.56677	878.20917	188.98242	1710.88965	1044.11975	62.08308	1595.04370	1030.75940	241.25655	1550.07129	888.90375	56.23466	1467.57446	1126.44067	375.75424	1473.07605	1050.69348	211.13263	1345.49902	1037.93835	252.64587	1471.41919	1193.78137	-84.11816	1272.42407	1102.36902	496.29932	1187.90662	1108.47021	-29.85406	1207.13330	1220.01392	414.33926	1157.95569	922.36023	148.85185	1068.17993	1030.61292				237.41928	979.55109	1275.17688	33.41346	495.08658	1030.59131	434.98871	571.24615	1179.97510	5.47093	156.27538	938.00842	450.85275	137.36899	1232.36987	
301	3.000	116.01546	1460.39209	871.80554	186.71643	1709.56372	1038.79358	60.38676	1593.80322	1024.67065	238.48418	1549.57446	882.73187	54.26463	1466.28259	1120.22119	373.26727	1471.47400	1043.71680	208.19510	1344.02612	1031.78271	251.15773	1469.64575	1186.86487	-86.64209	1271.34167	1095.71887	491.84735	1184.84717	1100.63477	-32.77917	1206.01733	1214.08984	409.89075	1156.28979	914.79535	146.01634	1066.37708	1024.53162	276.20630	1044.72656	1002.56897	235.29247	978.21906	1268.93909	32.49310	492.87781	1027.56030	434.36270	569.87842	1173.04956	0.42463	158.78976	925.32074	449.99985	136.60332	1231.93213	
302	3.010	113.65145	1459.92700	864.82355	184.54716	1708.66931	1033.27881	57.36481	1593.21594	1018.50653	235.38965	1549.12708	876.01062	52.00821	1465.01355	1113.76636	370.99326	1469.17432	1037.00903	205.45782	1342.61743	1025.06348	248.53105	1467.97034	1180.37158	-90.28848	1269.99683	1089.28088	487.78815	1182.11938	1092.94763	-36.19262	1205.35693	1208.24536	405.20392	1154.84631	906.97919	143.02208	1065.27441	1018.03668	272.23523	1041.31958	997.41284	232.88298	976.97925	1262.30042	31.61792	490.69318	1024.41309	433.94376	568.48279	1165.29431	-4.58707	161.83562	912.96454	449.68066	136.31784	1230.53174	
303	3.020	111.39523	1459.51978	857.87054	182.27658	1707.27014	1027.93823	55.17387	1591.59863	1011.66528	233.29063	1548.31604	869.66687	49.53249	1463.83179	1107.44727	368.61304	1467.23767	1030.17664	202.25285	1341.03210	1018.68353	245.93739	1466.19873	1173.75940	-93.24432	1269.29834	1082.84888	484.75565	1179.46826	1085.11084	-39.14690	1203.88049	1202.28320	400.09802	1152.73035	898.77411	139.81937	1062.94006	1011.79492	269.60046	1040.54175	989.07068	230.90123	974.89545	1255.85388	30.57585	488.46494	1020.88342	433.53516	566.63556	1158.42773	-8.36564	163.64001	901.18878	447.44595	134.79305	1228.92480	
304	3.030	108.67841	1458.95068	851.03302	179.75276	1705.60205	1022.50793	52.26896	1590.31128	1005.58020	232.14880	1547.23962	864.20306	46.63568	1462.20190	1101.23108	365.36237	1465.05908	1022.51093	198.83614	1338.90930	1012.07959	243.72531	1464.47131	1166.88770	-97.36895	1268.31738	1076.65918	480.55545	1176.80408	1076.49060	-42.54976	1202.63196	1196.37390	394.65594	1150.99878	891.76990	136.70746	1061.28052	1004.92126	265.42670	1038.58643	981.96692	228.39206	973.07971	1248.85303	29.69781	486.04559	1016.46643	433.24210	565.06702	1151.57581	-12.57933	166.46071	890.45612	447.31024	133.60487	1227.47705	
305	3.040	106.04513	1458.42822	843.92798	176.83275	1704.36133	1016.53308	49.22817	1589.16907	998.84308	227.88885	1546.79553	857.71857	43.98909	1460.55908	1094.96399	362.39020	1462.74316	1015.12170	195.65041	1337.56506	1005.19452	240.44742	1462.56885	1160.01086	-100.36719	1266.97766	1070.08521	476.15131	1173.82605	1068.49011	-46.13897	1202.13635	1190.62170	389.11005	1149.78479	883.26129	133.63895	1059.05847	998.16199	263.09946	1036.91687	976.52191	225.95161	971.48688	1242.00476	28.58313	483.18250	1012.46887	432.92685	563.28369	1144.76379	-15.54601	167.38718	879.19189	446.34064	133.16463	1223.72949	
306	3.050	103.41660	1457.68469	836.59406	173.55806	1702.57056	1011.14172	46.39362	1587.56543	992.27185	226.06314	1546.37854	851.13269	40.83982	1459.13367	1088.00098	359.61841	1460.29150	1009.06317	192.19882	1335.38330	998.26544	238.04314	1460.81372	1153.48975	-104.02560	1265.28186	1063.82556	471.16962	1170.98645	1060.26355	-50.38789	1201.13477	1184.86890	383.54230	1148.40295	875.07294	130.30647	1056.96753	991.47455	258.97711	1034.26550	969.97028	223.45805	969.81158	1235.14539	27.50704	480.43759	1007.95813	432.38037	561.64923	1138.01501	-19.44501	169.52298	870.10413	446.35455	132.19370	1220.62683	
307	3.060	100.50165	1457.01904	829.42853	170.90660	1700.70911	1005.31006	42.83526	1586.20435	985.57672	222.95924	1545.47168	844.77063	37.54948	1457.20422	1081.73926	355.79001	1458.04822	1001.97443	188.38023	1333.59534	991.49768	234.25700	1458.82117	1146.48718	-108.54987	1264.15125	1057.88123	467.63962	1168.62903	1051.48511	-54.18441	1200.01453	1178.84644	378.02402	1147.10974	867.03650	126.37277	1054.47412	984.88293	255.76169	1032.95471	960.28339	220.98143	968.06567	1228.28601	26.11303	477.53076	1003.67798	432.08237	560.29694	1131.91956	-21.79235	169.52699	860.01215	445.03104	131.36723	1216.60876	
308	3.070	97.37214	1456.45056	822.44391	166.20328	1698.74927	999.91656	39.51123	1584.55701	978.96570	221.29591	1544.60852	839.17993	34.12846	1455.47241	1074.99146	351.87958	1456.32373	993.31036	184.89940	1331.37476	984.13690	231.62685	1456.59741	1139.79480	-111.92243	1262.38660	1051.41248	462.59589	1165.28210	1042.33813	-58.10806	1197.55249	1172.71130	372.38760	1145.49231	859.09503	123.19482	1052.56360	977.65271	252.59335	1030.51074	953.98242	218.29012	965.87048	1221.09790	24.59773	474.94260	998.11627	431.22614	558.36469	1125.96777	-26.01495	170.34634	850.44019	444.94962	130.67165	1212.56726	
309	3.080	94.60410	1455.47705	815.04840	162.78436	1696.84167	994.10767	36.41351	1583.10950	971.80554	217.62263	1543.34924	832.20300	30.30446	1453.50647	1069.10156	348.10052	1454.02344	986.68481	180.84935	1329.48547	977.23370	228.34140	1454.44812	1132.66455	-116.31635	1260.70972	1045.33997	457.81232	1162.34900	1032.67346	-60.74876	1196.16980	1166.23010	366.36554	1143.80151	850.05688	119.57764	1049.92126	970.87347	248.64211	1028.64478	946.38019	215.37712	963.66211	1213.74805	22.80499	473.02200	992.42188	430.41959	557.23853	1119.74390	-27.44902	167.90106	841.10779	443.51874	129.59081	1209.14624	
310	3.090	90.97590	1454.81934	808.15173	159.45300	1695.66626	988.41980	32.22843	1581.41736	965.32764	212.17416	1541.99951	825.28595	26.56711	1451.50134	1062.26917	344.18808	1451.69580	979.43085	176.54341	1327.38855	970.09100	224.32971	1452.49182	1125.61743	-120.80774	1259.10864	1039.15540	453.26007	1159.94141	1023.65680	-64.78344	1193.51135	1160.03528	361.12784	1143.01135	840.62372	115.90860	1047.23877	963.42865	243.77487	1026.42603	939.65906	212.50391	961.65808	1206.33044	20.97276	471.01013	985.57709	429.45840	555.91321	1113.40076				443.00888	128.21538	1205.58130	
311	3.100	88.22845	1453.37451	800.32178	154.89920	1693.83179	982.68884	28.16884	1579.61743	958.25696	208.98427	1541.25696	818.65820	22.34774	1449.45862	1055.67627	339.75830	1449.34473	972.52856	172.25989	1325.38721	962.86127	220.81424	1450.23792	1118.51758	-125.04971	1257.55798	1032.69861	448.92422	1157.59778	1014.39459	-68.31570	1191.74683	1153.57544	355.35663	1141.44739	832.36670	112.52754	1045.12170	955.91205	241.33995	1023.52631	934.29852	209.03542	959.91772	1199.06787	19.18584	468.88965	977.83752	428.12958	554.44055	1108.14697	-32.55964	166.94249	823.63239	442.52148	127.26168	1202.67505	
312	3.110	85.13563	1452.35193	792.96466	151.12515	1692.10718	976.56458	23.44808	1578.13562	951.23083	205.58215	1540.24133	812.55182	18.51661	1447.38843	1049.23706	335.40454	1447.03589	964.35272	167.37692	1323.38965	956.03168	216.90067	1448.29431	1111.49170	-129.88658	1255.75635	1026.77258	444.28027	1155.10413	1006.18683	-73.85561	1189.64001	1147.45972	349.32297	1140.09399	824.38635	108.22451	1042.62878	949.08252	237.57646	1021.41382	924.68164	205.59488	957.94684	1191.30225	17.03641	467.23889	969.84406	427.16626	552.81219	1101.79199	-33.28662	164.71115	815.71954	442.38187	126.37852	1199.39417	
313	3.120	81.62557	1451.61768	785.77417	145.09741	1689.88647	971.19189	19.08426	1576.37354	944.01544	202.27544	1540.16284	806.53790	13.83500	1445.27539	1043.12500	330.95264	1444.47058	957.78418	162.84290	1321.72949	948.68109	212.43037	1445.94397	1104.16272	-134.26842	1253.85413	1020.35168	440.10165	1153.26587	996.27246	-77.61405	1187.11914	1140.52820	343.39035	1138.81665	815.66486	104.13381	1040.85107	941.68011	232.91737	1020.25525	915.94336	201.78218	955.92493	1183.53528	14.73259	465.32663	961.19720	425.40555	551.44568	1096.81775	-35.38465	162.62918	808.64691	441.66016	125.21518	1196.17529	
